HIERARCHY
ROOT Hips
{
    OFFSET 0.000000 0.000000 0.000000
    CHANNELS 6 Xposition Yposition Zposition Zrotation Xrotation Yrotation
    JOINT Spine
    {
        OFFSET -0.000000 14.517291 0.000000
        CHANNELS 3 Zrotation Xrotation Yrotation
        JOINT Spine1
        {
            OFFSET -0.000000 37.558300 0.000000
            CHANNELS 3 Zrotation Xrotation Yrotation
            JOINT Neck
            {
                OFFSET -0.000000 37.404057 3.400369
                CHANNELS 3 Zrotation Xrotation Yrotation
                JOINT Head
                {
                    OFFSET -0.000000 24.785618 -3.540803
                    CHANNELS 3 Zrotation Xrotation Yrotation
                    End Site
                    {
                        OFFSET -0.000000 35.408028 0.000000
                    }
                }
            }
            JOINT LeftShoulder
            {
                OFFSET 6.992933 33.973492 -0.192664
                CHANNELS 3 Zrotation Xrotation Yrotation
                JOINT LeftArm
                {
                    OFFSET 21.527611 0.000000 0.000000
                    CHANNELS 3 Zrotation Xrotation Yrotation
                    JOINT LeftForeArm
                    {
                        OFFSET 56.353916 0.000000 0.000000
                        CHANNELS 3 Zrotation Xrotation Yrotation
                        JOINT LeftHand
                        {
                            OFFSET 47.774071 0.000000 0.000000
                            CHANNELS 3 Zrotation Xrotation Yrotation
                            End Site
                            {
                                OFFSET 26.556021 0.000000 0.000000
                            }
                        }
                    }
                }
            }
            JOINT RightShoulder
            {
                OFFSET -7.065357 33.973492 -0.192664
                CHANNELS 3 Zrotation Xrotation Yrotation
                JOINT RightArm
                {
                    OFFSET -21.527611 0.000000 0.000000
                    CHANNELS 3 Zrotation Xrotation Yrotation
                    JOINT RightForeArm
                    {
                        OFFSET -56.353916 0.000000 0.000000
                        CHANNELS 3 Zrotation Xrotation Yrotation
                        JOINT RightHand
                        {
                            OFFSET -47.774071 0.000000 0.000000
                            CHANNELS 3 Zrotation Xrotation Yrotation
                            End Site
                            {
                                OFFSET -26.556021 0.000000 0.000000
                            }
                        }
                    }
                }
            }
        }
    }
    JOINT LeftUpLeg
    {
        OFFSET 17.704014 0.000000 0.000000
        CHANNELS 3 Zrotation Xrotation Yrotation
        JOINT LeftLeg
        {
            OFFSET -0.000000 -81.181816 0.000000
            CHANNELS 3 Zrotation Xrotation Yrotation
            JOINT LeftFoot
            {
                OFFSET -0.000000 -62.821102 0.000000
                CHANNELS 3 Zrotation Xrotation Yrotation
                JOINT LeftToeBase
                {
                    OFFSET -0.000000 -11.507608 26.556021
                    CHANNELS 3 Zrotation Xrotation Yrotation
                    End Site
                    {
                        OFFSET -0.000000 0.000000 7.081605
                    }
                }
            }
        }
    }
    JOINT RightUpLeg
    {
        OFFSET -17.704014 0.000000 0.000000
        CHANNELS 3 Zrotation Xrotation Yrotation
        JOINT RightLeg
        {
            OFFSET -0.000000 -81.181816 0.000000
            CHANNELS 3 Zrotation Xrotation Yrotation
            JOINT RightFoot
            {
                OFFSET -0.000000 -62.821102 0.000000
                CHANNELS 3 Zrotation Xrotation Yrotation
                JOINT RightToeBase
                {
                    OFFSET -0.000000 -11.507608 26.556021
                    CHANNELS 3 Zrotation Xrotation Yrotation
                    End Site
                    {
                        OFFSET -0.000000 0.000000 7.081605
                    }
                }
            }
        }
    }
}
MOTION
Frames:    5
Frame Time:    0.008333
4.441263    150.667953    -79.855431    1.649600    -4.102057    22.856449    -1.100893    0.963335    2.450584    -2.187340    1.034571    0.833001    2.121008    6.405226    -11.884375    9.069672    -5.422746    -10.868217    -0.401693    9.424093    -11.204196    -37.106415    20.341547    -43.193794    -4.605592    -29.429417    -120.314194    -13.061555    -35.090637    -11.714670    -0.282394    12.297157    -4.219591    29.051350    17.156183    47.248840    -0.782664    11.834389    34.141605    -18.301483    6.082672    36.350014    15.500000    0.166335    3.434616    -16.502203    41.395924    -19.806463    10.581391    -31.815990    49.424202    0.000000    0.000000    0.000000    -24.990074    -15.759281    -43.397385    10.401832    21.923992    -22.861448    -6.437161    6.773674    -23.839468    0.000000    0.000000    0.000000    
4.476171    150.671600    -79.894211    1.646129    -4.097743    22.905102    -1.085563    0.961665    2.434627    -2.178651    1.039049    0.827752    2.118721    6.384952    -11.883615    9.028786    -5.411981    -10.876063    -0.416488    9.409733    -11.213316    -37.096626    20.374319    -43.207821    -4.588790    -29.448078    -120.314873    -12.987219    -35.091061    -11.707124    -0.293237    12.278760    -4.238696    29.048193    17.172321    47.244232    -0.781840    11.851875    34.151268    -18.272110    6.104163    36.383354    15.492284    0.121826    3.375764    -16.544790    41.419468    -19.791155    10.624826    -31.797865    49.443981    0.000000    0.000000    0.000000    -24.977188    -15.740417    -43.357719    10.364294    21.847902    -22.863174    -6.412264    6.829127    -23.883896    0.000000    0.000000    0.000000    
4.514701    150.675186    -79.934082    1.639532    -4.090978    22.957691    -1.056307    0.956059    2.410434    -2.195832    1.036629    0.819906    2.131748    6.381150    -11.868176    9.004835    -5.418620    -10.865176    -0.411356    9.414343    -11.216426    -37.095798    20.378704    -43.231422    -4.590040    -29.431368    -120.312126    -12.952146    -35.083099    -11.673018    -0.287800    12.264245    -4.235135    29.039488    17.182240    47.225143    -0.787548    11.866179    34.153358    -18.262568    6.118218    36.414341    15.487618    0.075017    3.311535    -16.594002    41.439800    -19.785948    10.687257    -31.774626    49.480522    0.000000    0.000000    0.000000    -24.965530    -15.728847    -43.326405    10.314251    21.780832    -22.833841    -6.366752    6.890687    -23.961176    0.000000    0.000000    0.000000    
4.556018    150.679916    -79.971054    1.638692    -4.092585    22.999306    -1.029532    0.954707    2.406895    -2.210030    1.039967    0.818966    2.141990    6.376343    -11.873491    8.979231    -5.419178    -10.876511    -0.405406    9.415887    -11.231464    -37.091301    20.391727    -43.261917    -4.583609    -29.443031    -120.305176    -12.900320    -35.089333    -11.660696    -0.281018    12.252845    -4.253513    29.035576    17.173740    47.212685    -0.771488    11.895725    34.146618    -18.261158    6.136889    36.453445    15.476665    0.047062    3.258505    -16.637680    41.452236    -19.773643    10.744074    -31.752785    49.518826    0.000000    0.000000    0.000000    -24.940859    -15.708436    -43.261566    10.260957    21.690434    -22.833920    -6.344213    6.957337    -23.994703    0.000000    0.000000    0.000000    
4.603804    150.682480    -80.009163    1.641778    -4.093892    23.035622    -1.000792    0.950640    2.398681    -2.227579    1.043994    0.816591    2.143744    6.375933    -11.866758    8.965089    -5.420794    -10.872145    -0.400989    9.414761    -11.238163    -37.096092    20.401844    -43.282913    -4.581807    -29.438095    -120.300613    -12.823812    -35.090645    -11.632865    -0.282970    12.234592    -4.243681    29.020029    17.194889    47.188354    -0.786139    11.895413    34.130894    -18.264114    6.132051    36.497814    15.462872    0.031395    3.199894    -16.693668    41.444733    -19.756695    10.824656    -31.715313    49.554020    0.000000    0.000000    0.000000    -24.925674    -15.690348    -43.147102    10.228171    21.604437    -22.855644    -6.291794    7.007845    -24.084242    0.000000    0.000000    0.000000    
